<svg xmlns="http://www.w3.org/2000/svg" xmlns:xlink="http://www.w3.org/1999/xlink" width="431" zoomAndPan="magnify" viewBox="0 0 323.25 144.75" height="193" preserveAspectRatio="xMidYMid meet" version="1.0"><defs><g/><clipPath id="d18e623145"><path d="M 0 0.0429688 L 322.5 0.0429688 L 322.5 144.457031 L 0 144.457031 Z M 0 0.0429688 " clip-rule="nonzero"/></clipPath><clipPath id="4695e03a08"><path d="M 14 41 L 61 41 L 61 120.914062 L 14 120.914062 Z M 14 41 " clip-rule="nonzero"/></clipPath><clipPath id="63eb29d308"><path d="M 28 23.679688 L 34 23.679688 L 34 42 L 28 42 Z M 28 23.679688 " clip-rule="nonzero"/></clipPath><clipPath id="a7f10d0d9b"><path d="M 32 23.679688 L 38 23.679688 L 38 42 L 32 42 Z M 32 23.679688 " clip-rule="nonzero"/></clipPath><clipPath id="7a6ed98f74"><path d="M 58 55 L 76.324219 55 L 76.324219 62 L 58 62 Z M 58 55 " clip-rule="nonzero"/></clipPath><clipPath id="241bc85009"><path d="M 58 58 L 76.324219 58 L 76.324219 65 L 58 65 Z M 58 58 " clip-rule="nonzero"/></clipPath></defs><g clip-path="url(#d18e623145)"><path fill="#ffffff" d="M 0 0.0429688 L 322.5 0.0429688 L 322.5 144.457031 L 0 144.457031 Z M 0 0.0429688 " fill-opacity="1" fill-rule="nonzero"/></g><g clip-path="url(#4695e03a08)"><path fill="#1e4620" d="M 60.5 53.890625 L 39.105469 85.496094 L 37.503906 41.71875 L 36.152344 77.257812 L 14.511719 45.285156 L 36.03125 81.066406 L 34.554688 120.789062 L 40.332031 120.789062 L 39.226562 89.183594 Z M 60.5 53.890625 " fill-opacity="1" fill-rule="nonzero"/></g><path fill="#1e4620" d="M 18.9375 90.660156 C 18.9375 90.660156 34.800781 92.257812 33.695312 79.839844 Z M 18.9375 90.660156 " fill-opacity="1" fill-rule="nonzero"/><path fill="#bfa055" d="M 18.9375 90.660156 C 18.9375 90.660156 22.132812 75.042969 33.695312 79.839844 Z M 18.9375 90.660156 " fill-opacity="1" fill-rule="nonzero"/><path fill="#1e4620" d="M 9.835938 74.304688 C 9.835938 74.304688 22.625 83.773438 28.035156 72.582031 Z M 9.835938 74.304688 " fill-opacity="1" fill-rule="nonzero"/><path fill="#bfa055" d="M 9.835938 74.304688 C 9.835938 74.304688 20.660156 62.621094 28.035156 72.582031 Z M 9.835938 74.304688 " fill-opacity="1" fill-rule="nonzero"/><path fill="#1e4620" d="M 4.550781 57.828125 C 4.550781 57.828125 11.066406 72.335938 21.273438 65.203125 Z M 4.550781 57.828125 " fill-opacity="1" fill-rule="nonzero"/><path fill="#bfa055" d="M 4.550781 57.828125 C 4.550781 57.828125 19.675781 52.785156 21.273438 65.203125 Z M 4.550781 57.828125 " fill-opacity="1" fill-rule="nonzero"/><path fill="#1e4620" d="M 0 41.964844 C 0 41.964844 2.707031 57.582031 14.386719 53.277344 Z M 0 41.964844 " fill-opacity="1" fill-rule="nonzero"/><path fill="#bfa055" d="M 0 41.964844 C 0 41.964844 15.863281 40.980469 14.386719 53.277344 Z M 0 41.964844 " fill-opacity="1" fill-rule="nonzero"/><path fill="#1e4620" d="M 5.042969 27.453125 C 5.042969 27.453125 1.476562 42.949219 13.894531 43.441406 Z M 5.042969 27.453125 " fill-opacity="1" fill-rule="nonzero"/><path fill="#bfa055" d="M 5.042969 27.453125 C 5.042969 27.453125 20.042969 32.617188 13.894531 43.441406 Z M 5.042969 27.453125 " fill-opacity="1" fill-rule="nonzero"/><path fill="#1e4620" d="M 23.609375 31.757812 C 23.609375 31.757812 10.820312 41.226562 20.042969 49.710938 Z M 23.609375 31.757812 " fill-opacity="1" fill-rule="nonzero"/><path fill="#bfa055" d="M 23.609375 31.757812 C 23.609375 31.757812 31.726562 45.40625 20.042969 49.710938 Z M 23.609375 31.757812 " fill-opacity="1" fill-rule="nonzero"/><path fill="#1e4620" d="M 30.988281 44.300781 C 30.988281 44.300781 18.199219 53.769531 27.421875 62.253906 Z M 30.988281 44.300781 " fill-opacity="1" fill-rule="nonzero"/><path fill="#bfa055" d="M 30.988281 44.300781 C 30.988281 44.300781 39.105469 57.949219 27.421875 62.253906 Z M 30.988281 44.300781 " fill-opacity="1" fill-rule="nonzero"/><g clip-path="url(#63eb29d308)"><path fill="#1e4620" d="M 33.816406 23.640625 C 33.816406 23.640625 22.378906 34.585938 32.464844 41.839844 Z M 33.816406 23.640625 " fill-opacity="1" fill-rule="nonzero"/></g><g clip-path="url(#a7f10d0d9b)"><path fill="#bfa055" d="M 33.816406 23.640625 C 33.816406 23.640625 43.53125 36.183594 32.464844 41.839844 Z M 33.816406 23.640625 " fill-opacity="1" fill-rule="nonzero"/></g><path fill="#1e4620" d="M 47.21875 26.960938 C 47.21875 26.960938 32.957031 33.972656 40.457031 43.929688 Z M 47.21875 26.960938 " fill-opacity="1" fill-rule="nonzero"/><path fill="#bfa055" d="M 47.21875 26.960938 C 47.21875 26.960938 52.753906 41.839844 40.457031 43.929688 Z M 47.21875 26.960938 " fill-opacity="1" fill-rule="nonzero"/><path fill="#1e4620" d="M 59.515625 33.847656 C 59.515625 33.847656 44.023438 37.046875 48.695312 48.605469 Z M 59.515625 33.847656 " fill-opacity="1" fill-rule="nonzero"/><path fill="#bfa055" d="M 59.515625 33.847656 C 59.515625 33.847656 61.117188 49.589844 48.695312 48.605469 Z M 59.515625 33.847656 " fill-opacity="1" fill-rule="nonzero"/><path fill="#1e4620" d="M 73.90625 39.996094 C 73.90625 39.996094 58.042969 40.734375 60.871094 52.785156 Z M 73.90625 39.996094 " fill-opacity="1" fill-rule="nonzero"/><path fill="#bfa055" d="M 73.90625 39.996094 C 73.90625 39.996094 72.921875 55.859375 60.871094 52.785156 Z M 73.90625 39.996094 " fill-opacity="1" fill-rule="nonzero"/><path fill="#1e4620" d="M 56.074219 96.929688 C 56.074219 96.929688 53.984375 81.191406 42.179688 85.003906 Z M 56.074219 96.929688 " fill-opacity="1" fill-rule="nonzero"/><path fill="#bfa055" d="M 56.074219 96.929688 C 56.074219 96.929688 40.210938 97.300781 42.179688 85.003906 Z M 56.074219 96.929688 " fill-opacity="1" fill-rule="nonzero"/><path fill="#1e4620" d="M 63.820312 84.140625 C 63.820312 84.140625 56.441406 70 46.726562 77.746094 Z M 63.820312 84.140625 " fill-opacity="1" fill-rule="nonzero"/><path fill="#bfa055" d="M 63.820312 84.140625 C 63.820312 84.140625 49.066406 89.921875 46.726562 77.746094 Z M 63.820312 84.140625 " fill-opacity="1" fill-rule="nonzero"/><path fill="#1e4620" d="M 69.601562 70.371094 C 69.601562 70.371094 57.425781 60.164062 51.277344 70.984375 Z M 69.601562 70.371094 " fill-opacity="1" fill-rule="nonzero"/><path fill="#bfa055" d="M 69.601562 70.371094 C 69.601562 70.371094 58.164062 81.3125 51.277344 70.984375 Z M 69.601562 70.371094 " fill-opacity="1" fill-rule="nonzero"/><g clip-path="url(#7a6ed98f74)"><path fill="#1e4620" d="M 76.242188 58.933594 C 76.242188 58.933594 63.328125 49.710938 58.042969 61.023438 Z M 76.242188 58.933594 " fill-opacity="1" fill-rule="nonzero"/></g><g clip-path="url(#241bc85009)"><path fill="#bfa055" d="M 76.242188 58.933594 C 76.242188 58.933594 65.789062 70.863281 58.042969 61.023438 Z M 76.242188 58.933594 " fill-opacity="1" fill-rule="nonzero"/></g><path fill="#1e4620" d="M 53.121094 51.679688 C 53.121094 51.679688 37.628906 55.367188 42.792969 66.804688 Z M 53.121094 51.679688 " fill-opacity="1" fill-rule="nonzero"/><path fill="#bfa055" d="M 53.121094 51.679688 C 53.121094 51.679688 55.214844 67.417969 42.792969 66.804688 Z M 53.121094 51.679688 " fill-opacity="1" fill-rule="nonzero"/><path stroke-linecap="butt" transform="matrix(0.00000000130597, 0.748264, -0.748264, 0.00000000130597, 82.978092, 23.683102)" fill="none" stroke-linejoin="miter" d="M 0.000656952 2.001464 L 129.72282 2.001464 " stroke="#1e4620" stroke-width="4" stroke-opacity="1" stroke-miterlimit="4"/><g fill="#1e4620" fill-opacity="1"><g transform="translate(86.724657, 64.435841)"><g><path d="M 32.09375 -31.25 L 21.015625 0 L 11.484375 0 L 0.40625 -31.25 L 8.5 -31.25 L 16.25 -7.65625 L 24.03125 -31.25 Z M 32.09375 -31.25 "/></g></g></g><g fill="#1e4620" fill-opacity="1"><g transform="translate(119.220086, 64.435841)"><g><path d="M 26.171875 -12.828125 C 26.171875 -12.109375 26.128906 -11.363281 26.046875 -10.59375 L 8.8125 -10.59375 C 8.925781 -9.050781 9.421875 -7.867188 10.296875 -7.046875 C 11.179688 -6.234375 12.257812 -5.828125 13.53125 -5.828125 C 15.425781 -5.828125 16.75 -6.628906 17.5 -8.234375 L 25.59375 -8.234375 C 25.175781 -6.597656 24.425781 -5.128906 23.34375 -3.828125 C 22.257812 -2.523438 20.898438 -1.5 19.265625 -0.75 C 17.640625 -0.0078125 15.816406 0.359375 13.796875 0.359375 C 11.367188 0.359375 9.203125 -0.160156 7.296875 -1.203125 C 5.398438 -2.242188 3.914062 -3.726562 2.84375 -5.65625 C 1.78125 -7.582031 1.25 -9.835938 1.25 -12.421875 C 1.25 -15.003906 1.773438 -17.257812 2.828125 -19.1875 C 3.878906 -21.113281 5.351562 -22.597656 7.25 -23.640625 C 9.15625 -24.679688 11.335938 -25.203125 13.796875 -25.203125 C 16.203125 -25.203125 18.335938 -24.695312 20.203125 -23.6875 C 22.078125 -22.675781 23.539062 -21.234375 24.59375 -19.359375 C 25.644531 -17.492188 26.171875 -15.316406 26.171875 -12.828125 Z M 18.390625 -14.828125 C 18.390625 -16.128906 17.941406 -17.164062 17.046875 -17.9375 C 16.160156 -18.707031 15.046875 -19.09375 13.703125 -19.09375 C 12.429688 -19.09375 11.359375 -18.722656 10.484375 -17.984375 C 9.609375 -17.242188 9.066406 -16.191406 8.859375 -14.828125 Z M 18.390625 -14.828125 "/></g></g></g><g fill="#1e4620" fill-opacity="1"><g transform="translate(146.640879, 64.435841)"><g><path d="M 10.375 -20.703125 C 11.257812 -22.066406 12.367188 -23.140625 13.703125 -23.921875 C 15.046875 -24.710938 16.53125 -25.109375 18.15625 -25.109375 L 18.15625 -17.046875 L 16.0625 -17.046875 C 14.164062 -17.046875 12.742188 -16.632812 11.796875 -15.8125 C 10.847656 -15 10.375 -13.570312 10.375 -11.53125 L 10.375 0 L 2.765625 0 L 2.765625 -24.84375 L 10.375 -24.84375 Z M 10.375 -20.703125 "/></g></g></g><g fill="#1e4620" fill-opacity="1"><g transform="translate(165.692995, 64.435841)"><g><path d="M 1.25 -12.46875 C 1.25 -15.019531 1.726562 -17.257812 2.6875 -19.1875 C 3.65625 -21.113281 4.96875 -22.597656 6.625 -23.640625 C 8.289062 -24.679688 10.148438 -25.203125 12.203125 -25.203125 C 13.828125 -25.203125 15.316406 -24.859375 16.671875 -24.171875 C 18.023438 -23.484375 19.085938 -22.5625 19.859375 -21.40625 L 19.859375 -32.9375 L 27.46875 -32.9375 L 27.46875 0 L 19.859375 0 L 19.859375 -3.5625 C 19.140625 -2.375 18.117188 -1.421875 16.796875 -0.703125 C 15.484375 0.00390625 13.953125 0.359375 12.203125 0.359375 C 10.148438 0.359375 8.289062 -0.164062 6.625 -1.21875 C 4.96875 -2.269531 3.65625 -3.769531 2.6875 -5.71875 C 1.726562 -7.664062 1.25 -9.914062 1.25 -12.46875 Z M 19.859375 -12.421875 C 19.859375 -14.316406 19.328125 -15.8125 18.265625 -16.90625 C 17.210938 -18.007812 15.929688 -18.5625 14.421875 -18.5625 C 12.910156 -18.5625 11.625 -18.019531 10.5625 -16.9375 C 9.507812 -15.851562 8.984375 -14.363281 8.984375 -12.46875 C 8.984375 -10.5625 9.507812 -9.050781 10.5625 -7.9375 C 11.625 -6.832031 12.910156 -6.28125 14.421875 -6.28125 C 15.929688 -6.28125 17.210938 -6.828125 18.265625 -7.921875 C 19.328125 -9.023438 19.859375 -10.523438 19.859375 -12.421875 Z M 19.859375 -12.421875 "/></g></g></g><g fill="#1e4620" fill-opacity="1"><g transform="translate(195.91819, 64.435841)"><g><path d="M 26.171875 -12.828125 C 26.171875 -12.109375 26.128906 -11.363281 26.046875 -10.59375 L 8.8125 -10.59375 C 8.925781 -9.050781 9.421875 -7.867188 10.296875 -7.046875 C 11.179688 -6.234375 12.257812 -5.828125 13.53125 -5.828125 C 15.425781 -5.828125 16.75 -6.628906 17.5 -8.234375 L 25.59375 -8.234375 C 25.175781 -6.597656 24.425781 -5.128906 23.34375 -3.828125 C 22.257812 -2.523438 20.898438 -1.5 19.265625 -0.75 C 17.640625 -0.0078125 15.816406 0.359375 13.796875 0.359375 C 11.367188 0.359375 9.203125 -0.160156 7.296875 -1.203125 C 5.398438 -2.242188 3.914062 -3.726562 2.84375 -5.65625 C 1.78125 -7.582031 1.25 -9.835938 1.25 -12.421875 C 1.25 -15.003906 1.773438 -17.257812 2.828125 -19.1875 C 3.878906 -21.113281 5.351562 -22.597656 7.25 -23.640625 C 9.15625 -24.679688 11.335938 -25.203125 13.796875 -25.203125 C 16.203125 -25.203125 18.335938 -24.695312 20.203125 -23.6875 C 22.078125 -22.675781 23.539062 -21.234375 24.59375 -19.359375 C 25.644531 -17.492188 26.171875 -15.316406 26.171875 -12.828125 Z M 18.390625 -14.828125 C 18.390625 -16.128906 17.941406 -17.164062 17.046875 -17.9375 C 16.160156 -18.707031 15.046875 -19.09375 13.703125 -19.09375 C 12.429688 -19.09375 11.359375 -18.722656 10.484375 -17.984375 C 9.609375 -17.242188 9.066406 -16.191406 8.859375 -14.828125 Z M 18.390625 -14.828125 "/></g></g></g><g fill="#1e4620" fill-opacity="1"><g transform="translate(86.724657, 108.517876)"><g><path d="M 1.46875 -15.671875 C 1.46875 -18.753906 2.132812 -21.503906 3.46875 -23.921875 C 4.800781 -26.347656 6.660156 -28.234375 9.046875 -29.578125 C 11.441406 -30.929688 14.15625 -31.609375 17.1875 -31.609375 C 20.894531 -31.609375 24.066406 -30.628906 26.703125 -28.671875 C 29.347656 -26.710938 31.113281 -24.039062 32 -20.65625 L 23.640625 -20.65625 C 23.015625 -21.957031 22.128906 -22.945312 20.984375 -23.625 C 19.847656 -24.3125 18.550781 -24.65625 17.09375 -24.65625 C 14.75 -24.65625 12.847656 -23.835938 11.390625 -22.203125 C 9.941406 -20.578125 9.21875 -18.398438 9.21875 -15.671875 C 9.21875 -12.941406 9.941406 -10.757812 11.390625 -9.125 C 12.847656 -7.488281 14.75 -6.671875 17.09375 -6.671875 C 18.550781 -6.671875 19.847656 -7.007812 20.984375 -7.6875 C 22.128906 -8.375 23.015625 -9.375 23.640625 -10.6875 L 32 -10.6875 C 31.113281 -7.300781 29.347656 -4.632812 26.703125 -2.6875 C 24.066406 -0.75 20.894531 0.21875 17.1875 0.21875 C 14.15625 0.21875 11.441406 -0.453125 9.046875 -1.796875 C 6.660156 -3.148438 4.800781 -5.03125 3.46875 -7.4375 C 2.132812 -9.84375 1.46875 -12.585938 1.46875 -15.671875 Z M 1.46875 -15.671875 "/></g></g></g><g fill="#1e4620" fill-opacity="1"><g transform="translate(120.644536, 108.517876)"><g><path d="M 14.0625 0.359375 C 11.632812 0.359375 9.445312 -0.160156 7.5 -1.203125 C 5.550781 -2.242188 4.019531 -3.726562 2.90625 -5.65625 C 1.800781 -7.582031 1.25 -9.835938 1.25 -12.421875 C 1.25 -14.972656 1.8125 -17.21875 2.9375 -19.15625 C 4.0625 -21.101562 5.601562 -22.597656 7.5625 -23.640625 C 9.519531 -24.679688 11.71875 -25.203125 14.15625 -25.203125 C 16.59375 -25.203125 18.789062 -24.679688 20.75 -23.640625 C 22.707031 -22.597656 24.25 -21.101562 25.375 -19.15625 C 26.5 -17.21875 27.0625 -14.972656 27.0625 -12.421875 C 27.0625 -9.867188 26.488281 -7.617188 25.34375 -5.671875 C 24.207031 -3.734375 22.648438 -2.242188 20.671875 -1.203125 C 18.703125 -0.160156 16.5 0.359375 14.0625 0.359375 Z M 14.0625 -6.234375 C 15.519531 -6.234375 16.757812 -6.765625 17.78125 -7.828125 C 18.800781 -8.898438 19.3125 -10.429688 19.3125 -12.421875 C 19.3125 -14.410156 18.816406 -15.9375 17.828125 -17 C 16.835938 -18.070312 15.613281 -18.609375 14.15625 -18.609375 C 12.675781 -18.609375 11.441406 -18.082031 10.453125 -17.03125 C 9.472656 -15.976562 8.984375 -14.441406 8.984375 -12.421875 C 8.984375 -10.429688 9.46875 -8.898438 10.4375 -7.828125 C 11.40625 -6.765625 12.613281 -6.234375 14.0625 -6.234375 Z M 14.0625 -6.234375 "/></g></g></g><g fill="#1e4620" fill-opacity="1"><g transform="translate(149.000139, 108.517876)"><g><path d="M 17.890625 -25.109375 C 20.796875 -25.109375 23.117188 -24.164062 24.859375 -22.28125 C 26.597656 -20.394531 27.46875 -17.804688 27.46875 -14.515625 L 27.46875 0 L 19.90625 0 L 19.90625 -13.484375 C 19.90625 -15.148438 19.472656 -16.441406 18.609375 -17.359375 C 17.742188 -18.273438 16.585938 -18.734375 15.140625 -18.734375 C 13.679688 -18.734375 12.519531 -18.273438 11.65625 -17.359375 C 10.800781 -16.441406 10.375 -15.148438 10.375 -13.484375 L 10.375 0 L 2.765625 0 L 2.765625 -24.84375 L 10.375 -24.84375 L 10.375 -21.546875 C 11.144531 -22.640625 12.179688 -23.503906 13.484375 -24.140625 C 14.796875 -24.785156 16.265625 -25.109375 17.890625 -25.109375 Z M 17.890625 -25.109375 "/></g></g></g><g fill="#1e4620" fill-opacity="1"><g transform="translate(179.002769, 108.517876)"><g><path d="M 1.25 -12.421875 C 1.25 -15.003906 1.773438 -17.257812 2.828125 -19.1875 C 3.878906 -21.113281 5.347656 -22.597656 7.234375 -23.640625 C 9.117188 -24.679688 11.273438 -25.203125 13.703125 -25.203125 C 16.828125 -25.203125 19.429688 -24.382812 21.515625 -22.75 C 23.609375 -21.113281 24.984375 -18.8125 25.640625 -15.84375 L 17.546875 -15.84375 C 16.859375 -17.75 15.535156 -18.703125 13.578125 -18.703125 C 12.179688 -18.703125 11.066406 -18.160156 10.234375 -17.078125 C 9.398438 -15.992188 8.984375 -14.441406 8.984375 -12.421875 C 8.984375 -10.398438 9.398438 -8.847656 10.234375 -7.765625 C 11.066406 -6.679688 12.179688 -6.140625 13.578125 -6.140625 C 15.535156 -6.140625 16.859375 -7.085938 17.546875 -8.984375 L 25.640625 -8.984375 C 24.984375 -6.078125 23.601562 -3.789062 21.5 -2.125 C 19.394531 -0.46875 16.796875 0.359375 13.703125 0.359375 C 11.273438 0.359375 9.117188 -0.160156 7.234375 -1.203125 C 5.347656 -2.242188 3.878906 -3.726562 2.828125 -5.65625 C 1.773438 -7.582031 1.25 -9.835938 1.25 -12.421875 Z M 1.25 -12.421875 "/></g></g></g><g fill="#1e4620" fill-opacity="1"><g transform="translate(205.933908, 108.517876)"><g><path d="M 10.375 -20.703125 C 11.257812 -22.066406 12.367188 -23.140625 13.703125 -23.921875 C 15.046875 -24.710938 16.53125 -25.109375 18.15625 -25.109375 L 18.15625 -17.046875 L 16.0625 -17.046875 C 14.164062 -17.046875 12.742188 -16.632812 11.796875 -15.8125 C 10.847656 -15 10.375 -13.570312 10.375 -11.53125 L 10.375 0 L 2.765625 0 L 2.765625 -24.84375 L 10.375 -24.84375 Z M 10.375 -20.703125 "/></g></g></g><g fill="#1e4620" fill-opacity="1"><g transform="translate(224.986024, 108.517876)"><g><path d="M 26.171875 -12.828125 C 26.171875 -12.109375 26.128906 -11.363281 26.046875 -10.59375 L 8.8125 -10.59375 C 8.925781 -9.050781 9.421875 -7.867188 10.296875 -7.046875 C 11.179688 -6.234375 12.257812 -5.828125 13.53125 -5.828125 C 15.425781 -5.828125 16.75 -6.628906 17.5 -8.234375 L 25.59375 -8.234375 C 25.175781 -6.597656 24.425781 -5.128906 23.34375 -3.828125 C 22.257812 -2.523438 20.898438 -1.5 19.265625 -0.75 C 17.640625 -0.0078125 15.816406 0.359375 13.796875 0.359375 C 11.367188 0.359375 9.203125 -0.160156 7.296875 -1.203125 C 5.398438 -2.242188 3.914062 -3.726562 2.84375 -5.65625 C 1.78125 -7.582031 1.25 -9.835938 1.25 -12.421875 C 1.25 -15.003906 1.773438 -17.257812 2.828125 -19.1875 C 3.878906 -21.113281 5.351562 -22.597656 7.25 -23.640625 C 9.15625 -24.679688 11.335938 -25.203125 13.796875 -25.203125 C 16.203125 -25.203125 18.335938 -24.695312 20.203125 -23.6875 C 22.078125 -22.675781 23.539062 -21.234375 24.59375 -19.359375 C 25.644531 -17.492188 26.171875 -15.316406 26.171875 -12.828125 Z M 18.390625 -14.828125 C 18.390625 -16.128906 17.941406 -17.164062 17.046875 -17.9375 C 16.160156 -18.707031 15.046875 -19.09375 13.703125 -19.09375 C 12.429688 -19.09375 11.359375 -18.722656 10.484375 -17.984375 C 9.609375 -17.242188 9.066406 -16.191406 8.859375 -14.828125 Z M 18.390625 -14.828125 "/></g></g></g><g fill="#1e4620" fill-opacity="1"><g transform="translate(252.406817, 108.517876)"><g><path d="M 16.609375 -6.453125 L 16.609375 0 L 12.734375 0 C 9.972656 0 7.820312 -0.671875 6.28125 -2.015625 C 4.738281 -3.367188 3.96875 -5.578125 3.96875 -8.640625 L 3.96875 -18.515625 L 0.9375 -18.515625 L 0.9375 -24.84375 L 3.96875 -24.84375 L 3.96875 -30.890625 L 11.578125 -30.890625 L 11.578125 -24.84375 L 16.5625 -24.84375 L 16.5625 -18.515625 L 11.578125 -18.515625 L 11.578125 -8.546875 C 11.578125 -7.804688 11.753906 -7.269531 12.109375 -6.9375 C 12.460938 -6.613281 13.054688 -6.453125 13.890625 -6.453125 Z M 16.609375 -6.453125 "/></g></g></g><g fill="#1e4620" fill-opacity="1"><g transform="translate(270.479611, 108.517876)"><g><path d="M 14.0625 0.359375 C 11.632812 0.359375 9.445312 -0.160156 7.5 -1.203125 C 5.550781 -2.242188 4.019531 -3.726562 2.90625 -5.65625 C 1.800781 -7.582031 1.25 -9.835938 1.25 -12.421875 C 1.25 -14.972656 1.8125 -17.21875 2.9375 -19.15625 C 4.0625 -21.101562 5.601562 -22.597656 7.5625 -23.640625 C 9.519531 -24.679688 11.71875 -25.203125 14.15625 -25.203125 C 16.59375 -25.203125 18.789062 -24.679688 20.75 -23.640625 C 22.707031 -22.597656 24.25 -21.101562 25.375 -19.15625 C 26.5 -17.21875 27.0625 -14.972656 27.0625 -12.421875 C 27.0625 -9.867188 26.488281 -7.617188 25.34375 -5.671875 C 24.207031 -3.734375 22.648438 -2.242188 20.671875 -1.203125 C 18.703125 -0.160156 16.5 0.359375 14.0625 0.359375 Z M 14.0625 -6.234375 C 15.519531 -6.234375 16.757812 -6.765625 17.78125 -7.828125 C 18.800781 -8.898438 19.3125 -10.429688 19.3125 -12.421875 C 19.3125 -14.410156 18.816406 -15.9375 17.828125 -17 C 16.835938 -18.070312 15.613281 -18.609375 14.15625 -18.609375 C 12.675781 -18.609375 11.441406 -18.082031 10.453125 -17.03125 C 9.472656 -15.976562 8.984375 -14.441406 8.984375 -12.421875 C 8.984375 -10.429688 9.46875 -8.898438 10.4375 -7.828125 C 11.40625 -6.765625 12.613281 -6.234375 14.0625 -6.234375 Z M 14.0625 -6.234375 "/></g></g></g></svg>